<?xml version="1.0" standalone="no"?>
<!DOCTYPE svg PUBLIC "-//W3C//DTD SVG 20010904//EN"
 "http://www.w3.org/TR/2001/REC-SVG-20010904/DTD/svg10.dtd">
<svg version="1.0" xmlns="http://www.w3.org/2000/svg"
 width="512.000000pt" height="512.000000pt" viewBox="0 0 512.000000 512.000000"
 preserveAspectRatio="xMidYMid meet">

<g transform="translate(0.000000,512.000000) scale(0.100000,-0.100000)"
fill="#000000" stroke="none">
<path d="M2347 5105 c-624 -85 -1236 -591 -1541 -1273 -307 -685 -253 -1332
157 -1877 81 -107 241 -265 355 -349 91 -69 92 -70 86 -105 -6 -36 -57 -279
-117 -551 -28 -130 -31 -162 -31 -315 -1 -155 1 -175 22 -227 119 -296 469
-408 1277 -408 639 0 985 70 1163 235 107 99 152 217 152 400 0 130 -12 205
-84 550 -30 143 -58 283 -61 310 l-5 50 82 60 c104 76 276 246 355 350 283
376 398 804 338 1257 -90 683 -547 1363 -1133 1689 -328 182 -669 251 -1015
204z m419 -310 c49 -9 120 -25 157 -36 605 -179 1151 -847 1262 -1543 20 -126
20 -344 0 -459 -35 -202 -136 -434 -260 -598 -72 -96 -241 -267 -252 -256 -4
5 -9 161 -10 349 -2 204 -8 358 -14 382 -21 78 -82 179 -149 246 -70 70 -137
111 -238 145 -63 21 -65 23 -88 79 -63 155 -216 284 -394 332 -92 25 -330 25
-420 0 -165 -45 -315 -165 -383 -306 l-36 -75 -75 -24 c-173 -53 -310 -181
-375 -351 -25 -64 -26 -69 -29 -422 -3 -285 -6 -358 -16 -358 -23 0 -230 223
-289 311 -160 241 -237 489 -238 764 -1 155 13 261 51 411 144 556 569 1086
1046 1305 90 41 237 87 329 103 109 19 312 20 421 1z m-49 -1660 c109 -33 175
-111 192 -227 5 -37 18 -78 28 -92 25 -35 91 -66 141 -66 94 0 204 -61 249
-138 l28 -47 6 -375 c8 -464 22 -583 124 -1065 73 -343 78 -375 79 -480 1 -83
-3 -107 -20 -140 -54 -103 -233 -159 -592 -186 -216 -15 -804 -7 -957 15 -257
36 -375 84 -423 171 -29 51 -20 210 22 405 122 574 144 702 166 955 5 66 10
248 10 406 l0 285 26 52 c44 88 127 135 262 151 55 6 90 15 110 30 35 24 62
77 62 119 0 96 73 185 183 223 67 23 232 25 304 4z"/>
<path d="M1527 3678 c-40 -24 -77 -86 -77 -132 0 -40 37 -104 73 -126 43 -27
119 -26 163 0 44 28 78 99 70 148 -17 107 -136 164 -229 110z"/>
<path d="M3444 3681 c-72 -44 -98 -112 -69 -187 46 -122 222 -129 275 -11 26
55 25 85 -3 137 -39 74 -134 103 -203 61z"/>
<path d="M2127 1175 c-21 -7 -47 -21 -59 -32 -42 -38 -48 -65 -48 -225 0 -146
1 -155 24 -189 62 -90 193 -90 253 0 21 32 23 44 23 191 0 146 -2 159 -22 190
-45 66 -104 88 -171 65z"/>
<path d="M2912 1180 c-18 -4 -45 -18 -59 -31 -48 -46 -53 -67 -53 -232 0 -144
2 -156 23 -188 64 -96 212 -87 261 15 22 46 23 313 2 354 -19 36 -55 68 -86
77 -45 12 -55 13 -88 5z"/>
</g>
</svg>
